# Blender v2.75 (sub 0) OBJ File: 'student.blend'
# www.blender.org
mtllib female_hair01.mtl
o Cube
v 0.350000 1.750000 0.350000
v 0.650000 1.750000 0.350000
v 0.650000 1.550000 0.350000
v 0.600000 1.550000 0.350000
v 0.600000 1.700000 0.350000
v 0.400000 1.700000 0.350000
v 0.400000 1.550000 0.350000
v 0.350000 1.550000 0.350000
v 0.350000 1.550000 0.450000
v 0.350000 1.650000 0.450000
v 0.350000 1.650000 0.550000
v 0.350000 1.500000 0.550000
v 0.350000 1.500000 0.650000
v 0.350000 1.750000 0.650000
v 0.650000 1.750000 0.650000
v 0.650000 1.500000 0.650000
v 0.650000 1.500000 0.550000
v 0.650000 1.650000 0.550000
v 0.650000 1.650000 0.450000
v 0.650000 1.550000 0.450000
v 0.600000 1.550000 0.450000
v 0.600000 1.650000 0.450000
v 0.600000 1.650000 0.550000
v 0.600000 1.500000 0.550000
v 0.600000 1.500000 0.600000
v 0.600000 1.700000 0.600000
v 0.400000 1.700000 0.600000
v 0.400000 1.500000 0.600000
v 0.400000 1.500000 0.550000
v 0.400000 1.650000 0.550000
v 0.400000 1.650000 0.450000
v 0.400000 1.550000 0.450000
vn 0.000000 0.000000 -1.000000
vn -1.000000 0.000000 0.000000
vn 0.000000 1.000000 0.000000
vn 1.000000 0.000000 0.000000
vn 0.000000 -1.000000 0.000000
vn 0.000000 0.000000 1.000000
usemtl Hair
s off
f 6//1 2//1 5//1
f 10//2 11//2 14//2
f 15//3 2//3 1//3
f 19//4 15//4 18//4
f 22//2 23//2 26//2
f 5//5 26//5 27//5
f 31//4 27//4 30//4
f 31//6 10//6 9//6
f 10//5 31//5 30//5
f 11//1 30//1 29//1
f 28//5 25//5 16//5
f 15//6 14//6 13//6
f 23//1 18//1 17//1
f 22//5 19//5 18//5
f 19//6 22//6 21//6
f 27//1 26//1 25//1
f 7//5 32//5 9//5
f 4//5 3//5 20//5
f 6//1 8//1 1//1
f 3//1 4//1 5//1
f 6//1 7//1 8//1
f 2//1 3//1 5//1
f 2//1 6//1 1//1
f 10//2 8//2 9//2
f 11//2 13//2 14//2
f 1//2 8//2 10//2
f 11//2 12//2 13//2
f 14//2 1//2 10//2
f 14//3 15//3 1//3
f 19//4 20//4 3//4
f 16//4 17//4 18//4
f 19//4 3//4 2//4
f 15//4 16//4 18//4
f 15//4 19//4 2//4
f 22//2 4//2 21//2
f 23//2 25//2 26//2
f 5//2 4//2 22//2
f 23//2 24//2 25//2
f 26//2 5//2 22//2
f 6//5 5//5 27//5
f 31//4 32//4 7//4
f 28//4 29//4 30//4
f 31//4 7//4 6//4
f 27//4 28//4 30//4
f 27//4 31//4 6//4
f 32//6 31//6 9//6
f 11//5 10//5 30//5
f 12//1 11//1 29//1
f 12//5 29//5 28//5
f 25//5 17//5 16//5
f 13//5 12//5 28//5
f 25//5 24//5 17//5
f 16//5 13//5 28//5
f 16//6 15//6 13//6
f 24//1 23//1 17//1
f 23//5 22//5 18//5
f 20//6 19//6 21//6
f 28//1 27//1 25//1
f 8//5 7//5 9//5
f 21//5 4//5 20//5
