# Blender v2.75 (sub 0) OBJ File: 'student.blend'
# www.blender.org
mtllib shirt_leftarm.mtl
o Cube_Cube.001
v 0.195000 1.245000 0.445000
v 0.195000 1.455000 0.445000
v 0.305000 1.245000 0.445000
v 0.305000 1.455000 0.445000
v 0.195000 1.245000 0.555000
v 0.195000 1.455000 0.555000
v 0.305000 1.245000 0.555000
v 0.305000 1.455000 0.555000
vn 0.000000 0.000000 -1.000000
vn 1.000000 0.000000 0.000000
vn 0.000000 0.000000 1.000000
vn -1.000000 0.000000 0.000000
vn 0.000000 -1.000000 0.000000
vn 0.000000 1.000000 0.000000
usemtl Shirt
s off
f 4//1 3//1 1//1
f 8//2 7//2 3//2
f 6//3 5//3 7//3
f 2//4 1//4 5//4
f 3//5 7//5 5//5
f 8//6 4//6 2//6
f 2//1 4//1 1//1
f 4//2 8//2 3//2
f 8//3 6//3 7//3
f 6//4 2//4 5//4
f 1//5 3//5 5//5
f 6//6 8//6 2//6
