# Blender v2.75 (sub 0) OBJ File: 'joy.blend'
# www.blender.org
mtllib joy.mtl
o Body
v 0.300000 0.900000 0.350000
v 0.300000 1.500000 0.350000
v 0.700000 0.900000 0.350000
v 0.700000 1.500000 0.350000
v 0.300000 0.900000 0.550000
v 0.300000 1.500000 0.550000
v 0.700000 0.900000 0.550000
v 0.700000 1.500000 0.550000
vn 0.000000 0.000000 -1.000000
vn 1.000000 0.000000 0.000000
vn 0.000000 0.000000 1.000000
vn -1.000000 0.000000 0.000000
vn 0.000000 -1.000000 0.000000
vn 0.000000 1.000000 0.000000
usemtl Shirt
s off
f 4//1 3//1 1//1
f 8//2 7//2 3//2
f 6//3 5//3 7//3
f 2//4 1//4 5//4
f 3//5 7//5 5//5
f 8//6 4//6 2//6
f 2//1 4//1 1//1
f 4//2 8//2 3//2
f 8//3 6//3 7//3
f 6//4 2//4 5//4
f 1//5 3//5 5//5
f 6//6 8//6 2//6
o LeftArmUpper
v 0.200000 1.050000 0.400000
v 0.200000 1.450000 0.400000
v 0.300000 1.050000 0.400000
v 0.300000 1.450000 0.400000
v 0.200000 1.050000 0.500000
v 0.200000 1.450000 0.500000
v 0.300000 1.050000 0.500000
v 0.300000 1.450000 0.500000
vn 0.000000 0.000000 -1.000000
vn 1.000000 0.000000 0.000000
vn 0.000000 0.000000 1.000000
vn -1.000000 0.000000 0.000000
vn 0.000000 -1.000000 0.000000
vn 0.000000 1.000000 0.000000
usemtl Shirt
s off
f 12//7 11//7 9//7
f 16//8 15//8 11//8
f 14//9 13//9 15//9
f 10//10 9//10 13//10
f 11//11 15//11 13//11
f 16//12 12//12 10//12
f 10//7 12//7 9//7
f 12//8 16//8 11//8
f 16//9 14//9 15//9
f 14//10 10//10 13//10
f 9//11 11//11 13//11
f 14//12 16//12 10//12
o LeftArmLower
v 0.200000 0.750000 0.400000
v 0.200000 1.050000 0.400000
v 0.300000 0.750000 0.400000
v 0.300000 1.050000 0.400000
v 0.200000 0.750000 0.500000
v 0.200000 1.050000 0.500000
v 0.300000 0.750000 0.500000
v 0.300000 1.050000 0.500000
vn 0.000000 0.000000 -1.000000
vn 1.000000 0.000000 0.000000
vn 0.000000 0.000000 1.000000
vn -1.000000 -0.000000 -0.000000
vn 0.000000 -1.000000 0.000000
vn 0.000000 1.000000 0.000000
usemtl Skin
s off
f 20//13 19//13 17//13
f 24//14 23//14 19//14
f 22//15 21//15 23//15
f 18//16 17//16 21//16
f 17//17 19//17 23//17
f 24//18 20//18 18//18
f 18//13 20//13 17//13
f 20//14 24//14 19//14
f 24//15 22//15 23//15
f 22//16 18//16 21//16
f 21//17 17//17 23//17
f 22//18 24//18 18//18
o Head
v 0.400000 1.500000 0.350000
v 0.400000 1.700000 0.350000
v 0.600000 1.500000 0.350000
v 0.600000 1.700000 0.350000
v 0.400000 1.500000 0.550000
v 0.400000 1.700000 0.550000
v 0.600000 1.500000 0.550000
v 0.600000 1.700000 0.550000
vn 0.000000 0.000000 -1.000000
vn 1.000000 0.000000 0.000000
vn 0.000000 0.000000 1.000000
vn -1.000000 0.000000 0.000000
vn 0.000000 -1.000000 0.000000
vn 0.000000 1.000000 0.000000
usemtl Skin
s off
f 28//19 27//19 25//19
f 32//20 31//20 27//20
f 30//21 29//21 31//21
f 26//22 25//22 29//22
f 27//23 31//23 29//23
f 32//24 28//24 26//24
f 26//19 28//19 25//19
f 28//20 32//20 27//20
f 32//21 30//21 31//21
f 30//22 26//22 29//22
f 25//23 27//23 29//23
f 30//24 32//24 26//24
o Hair_Cube
v 0.350000 1.750000 0.300000
v 0.650000 1.750000 0.300000
v 0.650000 1.500000 0.300000
v 0.600000 1.500000 0.300000
v 0.600000 1.700000 0.300000
v 0.400000 1.700000 0.300000
v 0.400000 1.500000 0.300000
v 0.350000 1.500000 0.300000
v 0.350000 1.750000 0.600000
v 0.350000 1.500000 0.600000
v 0.650000 1.750000 0.600000
v 0.650000 1.500000 0.600000
v 0.400000 1.500000 0.550000
v 0.600000 1.500000 0.550000
v 0.600000 1.700000 0.550000
v 0.400000 1.700000 0.550000
vn 0.000000 0.000000 -1.000000
vn -1.000000 0.000000 0.000000
vn 0.000000 1.000000 0.000000
vn 1.000000 0.000000 0.000000
vn 0.000000 -1.000000 0.000000
vn 0.000000 0.000000 1.000000
usemtl Hair
s off
f 38//25 34//25 37//25
f 33//26 40//26 42//26
f 43//27 34//27 33//27
f 43//28 44//28 35//28
f 45//29 46//29 42//29
f 41//30 42//30 44//30
f 36//26 46//26 47//26
f 37//29 47//29 48//29
f 45//25 48//25 47//25
f 45//28 39//28 38//28
f 38//25 40//25 33//25
f 35//25 36//25 37//25
f 38//25 39//25 40//25
f 34//25 35//25 37//25
f 34//25 38//25 33//25
f 41//26 33//26 42//26
f 41//27 43//27 33//27
f 34//28 43//28 35//28
f 46//29 35//29 44//29
f 45//29 40//29 39//29
f 46//29 36//29 35//29
f 42//29 40//29 45//29
f 46//29 44//29 42//29
f 43//30 41//30 44//30
f 37//26 36//26 47//26
f 38//29 37//29 48//29
f 46//25 45//25 47//25
f 48//28 45//28 38//28
o LeftLegUpper
v 0.300000 0.400000 0.525000
v 0.300000 0.400000 0.375000
v 0.450000 0.400000 0.525000
v 0.450000 0.400000 0.375000
v 0.300000 0.900000 0.525000
v 0.300000 0.900000 0.375000
v 0.450000 0.900000 0.525000
v 0.450000 0.900000 0.375000
vn 0.000000 -1.000000 0.000000
vn 1.000000 0.000000 0.000000
vn 0.000000 1.000000 0.000000
vn -1.000000 0.000000 0.000000
vn 0.000000 0.000000 1.000000
vn 0.000000 0.000000 -1.000000
usemtl Uniform
s off
f 52//31 51//31 49//31
f 56//32 55//32 51//32
f 54//33 53//33 55//33
f 54//34 50//34 49//34
f 51//35 55//35 53//35
f 56//36 52//36 50//36
f 50//31 52//31 49//31
f 52//32 56//32 51//32
f 56//33 54//33 55//33
f 53//34 54//34 49//34
f 49//35 51//35 53//35
f 54//36 56//36 50//36
o LeftLegLower
v 0.300000 0.000000 0.375000
v 0.300000 0.400000 0.375000
v 0.450000 0.000000 0.375000
v 0.450000 0.400000 0.375000
v 0.300000 0.000000 0.525000
v 0.300000 0.400000 0.525000
v 0.450000 0.000000 0.525000
v 0.450000 0.400000 0.525000
vn 0.000000 0.000000 -1.000000
vn 1.000000 0.000000 0.000000
vn 0.000000 0.000000 1.000000
vn -1.000000 0.000000 0.000000
vn 0.000000 -1.000000 0.000000
vn 0.000000 1.000000 0.000000
usemtl Uniform
s off
f 60//37 59//37 57//37
f 64//38 63//38 59//38
f 62//39 61//39 63//39
f 58//40 57//40 61//40
f 59//41 63//41 61//41
f 64//42 60//42 58//42
f 58//37 60//37 57//37
f 60//38 64//38 59//38
f 64//39 62//39 63//39
f 62//40 58//40 61//40
f 57//41 59//41 61//41
f 62//42 64//42 58//42
o RightLegUpper
v 0.550000 0.400000 0.525000
v 0.550000 0.400000 0.375000
v 0.700000 0.400000 0.525000
v 0.700000 0.400000 0.375000
v 0.550000 0.900000 0.525000
v 0.550000 0.900000 0.375000
v 0.700000 0.900000 0.525000
v 0.700000 0.900000 0.375000
vn 0.000000 -1.000000 0.000000
vn 1.000000 0.000000 0.000000
vn 0.000000 1.000000 0.000000
vn -1.000000 0.000000 0.000000
vn 0.000000 0.000000 1.000000
vn 0.000000 0.000000 -1.000000
usemtl Uniform
s off
f 68//43 67//43 65//43
f 72//44 71//44 67//44
f 70//45 69//45 71//45
f 70//46 66//46 65//46
f 67//47 71//47 69//47
f 72//48 68//48 66//48
f 66//43 68//43 65//43
f 68//44 72//44 67//44
f 72//45 70//45 71//45
f 69//46 70//46 65//46
f 65//47 67//47 69//47
f 70//48 72//48 66//48
o RightLegLower
v 0.550000 0.000000 0.375000
v 0.550000 0.400000 0.375000
v 0.700000 0.000000 0.375000
v 0.700000 0.400000 0.375000
v 0.550000 0.000000 0.525000
v 0.550000 0.400000 0.525000
v 0.700000 0.000000 0.525000
v 0.700000 0.400000 0.525000
vn 0.000000 0.000000 -1.000000
vn 1.000000 0.000000 -0.000000
vn 0.000000 0.000000 1.000000
vn -1.000000 0.000000 0.000000
vn 0.000000 -1.000000 0.000000
vn -0.000000 1.000000 -0.000000
usemtl Uniform
s off
f 74//49 76//49 75//49
f 80//50 79//50 75//50
f 78//51 77//51 79//51
f 74//52 73//52 77//52
f 75//53 79//53 77//53
f 80//54 76//54 74//54
f 73//49 74//49 75//49
f 76//50 80//50 75//50
f 80//51 78//51 79//51
f 78//52 74//52 77//52
f 73//53 75//53 77//53
f 78//54 80//54 74//54
o RightArmUpper
v 0.700000 1.050000 0.400000
v 0.700000 1.450000 0.400000
v 0.800000 1.050000 0.400000
v 0.800000 1.450000 0.400000
v 0.700000 1.050000 0.500000
v 0.700000 1.450000 0.500000
v 0.800000 1.050000 0.500000
v 0.800000 1.450000 0.500000
vn 0.000000 0.000000 -1.000000
vn 1.000000 0.000000 0.000000
vn 0.000000 0.000000 1.000000
vn -1.000000 0.000000 0.000000
vn 0.000000 -1.000000 0.000000
vn 0.000000 1.000000 0.000000
usemtl Shirt
s off
f 84//55 83//55 81//55
f 88//56 87//56 83//56
f 86//57 85//57 87//57
f 82//58 81//58 85//58
f 83//59 87//59 85//59
f 88//60 84//60 82//60
f 82//55 84//55 81//55
f 84//56 88//56 83//56
f 88//57 86//57 87//57
f 86//58 82//58 85//58
f 81//59 83//59 85//59
f 86//60 88//60 82//60
o RightArmLower
v 0.700000 0.750000 0.400000
v 0.700000 1.050000 0.400000
v 0.800000 0.750000 0.400000
v 0.800000 1.050000 0.400000
v 0.700000 0.750000 0.500000
v 0.700000 1.050000 0.500000
v 0.800000 0.750000 0.500000
v 0.800000 1.050000 0.500000
vn 0.000000 0.000000 -1.000000
vn 1.000000 0.000000 0.000000
vn 0.000000 0.000000 1.000000
vn -1.000000 0.000000 0.000000
vn 0.000000 -1.000000 0.000000
vn 0.000000 1.000000 0.000000
usemtl Skin
s off
f 92//61 91//61 89//61
f 96//62 95//62 91//62
f 96//63 94//63 93//63
f 90//64 89//64 93//64
f 91//65 95//65 93//65
f 96//66 92//66 90//66
f 90//61 92//61 89//61
f 92//62 96//62 91//62
f 95//63 96//63 93//63
f 94//64 90//64 93//64
f 89//65 91//65 93//65
f 94//66 96//66 90//66
