# Blender v2.75 (sub 0) OBJ File: 'stuff03.blend'
# www.blender.org
mtllib stuff03.mtl
o PencilCase_Cube.002
v 0.710537 0.025000 0.295444
v 0.710537 0.075000 0.295444
v 0.902781 0.025000 0.350601
v 0.902781 0.075000 0.350601
v 0.682958 0.025000 0.391566
v 0.682958 0.075000 0.391566
v 0.875202 0.025000 0.446723
v 0.875202 0.075000 0.446723
vn 0.275800 0.000000 -0.961200
vn 0.961200 0.000000 0.275800
vn -0.275800 0.000000 0.961200
vn -0.961200 0.000000 -0.275800
vn 0.000000 -1.000000 -0.000000
vn 0.000000 1.000000 0.000000
usemtl PencilCase
s off
f 4//1 3//1 1//1
f 8//2 7//2 3//2
f 6//3 5//3 7//3
f 2//4 1//4 5//4
f 1//5 3//5 7//5
f 8//6 4//6 2//6
f 2//1 4//1 1//1
f 4//2 8//2 3//2
f 8//3 6//3 7//3
f 6//4 2//4 5//4
f 5//5 1//5 7//5
f 6//6 8//6 2//6
o Notes_Cube.001
v 0.286279 0.000000 0.478695
v 0.286279 0.020000 0.478695
v 0.684359 0.000000 0.439546
v 0.684359 0.020000 0.439546
v 0.315641 0.000000 0.777255
v 0.315641 0.020000 0.777255
v 0.713721 0.000000 0.738105
v 0.713721 0.020000 0.738105
vn -0.097900 0.000000 -0.995200
vn 0.995200 0.000000 -0.097900
vn 0.097900 0.000000 0.995200
vn -0.995200 0.000000 0.097900
vn 0.000000 -1.000000 0.000000
vn 0.000000 1.000000 0.000000
usemtl Paper
s off
f 12//7 11//7 9//7
f 16//8 15//8 11//8
f 14//9 13//9 15//9
f 10//10 9//10 13//10
f 11//11 15//11 13//11
f 16//12 12//12 10//12
f 10//7 12//7 9//7
f 12//8 16//8 11//8
f 16//9 14//9 15//9
f 14//10 10//10 13//10
f 9//11 11//11 13//11
f 14//12 16//12 10//12
