# Blender v2.75 (sub 0) OBJ File: 'dress.blend'
# www.blender.org
mtllib dress_body.mtl
o Upper_Cube.001
v 0.330000 1.510000 0.390000
v 0.350000 1.510000 0.390000
v 0.350000 1.400000 0.390000
v 0.650000 1.400000 0.390000
v 0.650000 1.510000 0.390000
v 0.670000 1.510000 0.390000
v 0.670000 1.400000 0.390000
v 0.670000 1.400000 0.390000
v 0.670000 1.300000 0.390000
v 0.710000 1.300000 0.390000
v 0.710000 1.190000 0.390000
v 0.290000 1.190000 0.390000
v 0.290000 1.300000 0.390000
v 0.330000 1.300000 0.390000
v 0.330000 1.500000 0.390000
v 0.330000 1.500000 0.390000
v 0.330000 1.500000 0.610000
v 0.330000 1.510000 0.610000
v 0.330000 1.500000 0.400000
v 0.330000 1.500000 0.400000
v 0.330000 1.500000 0.600000
v 0.350000 1.510000 0.600000
v 0.350000 1.510000 0.500000
v 0.350000 1.510000 0.610000
v 0.350000 1.500000 0.500000
v 0.350000 1.500000 0.400000
v 0.350000 1.500000 0.400000
v 0.350000 1.400000 0.400000
v 0.650000 1.400000 0.400000
v 0.650000 1.510000 0.500000
v 0.650000 1.500000 0.400000
v 0.650000 1.500000 0.400000
v 0.650000 1.500000 0.500000
v 0.650000 1.510000 0.600000
v 0.650000 1.510000 0.610000
v 0.670000 1.510000 0.610000
v 0.670000 1.400000 0.610000
v 0.670000 1.400000 0.600000
v 0.670000 1.500000 0.600000
v 0.670000 1.500000 0.400000
v 0.670000 1.500000 0.400000
v 0.670000 1.400000 0.400000
v 0.670000 1.400000 0.400000
v 0.670000 1.300000 0.400000
v 0.700000 1.300000 0.400000
v 0.700000 1.300000 0.400000
v 0.710000 1.300000 0.400000
v 0.300000 1.190000 0.400000
v 0.300000 1.190000 0.600000
v 0.700000 1.190000 0.600000
v 0.710000 1.190000 0.610000
v 0.290000 1.190000 0.610000
v 0.700000 1.190000 0.400000
v 0.290000 1.300000 0.400000
v 0.300000 1.300000 0.400000
v 0.300000 1.300000 0.400000
v 0.330000 1.300000 0.400000
v 0.330000 1.500000 0.400000
v 0.330000 1.500000 0.610000
v 0.330000 1.500000 0.600000
v 0.650000 1.300000 0.610000
v 0.350000 1.300000 0.610000
v 0.330000 1.300000 0.610000
v 0.290000 1.300000 0.610000
v 0.710000 1.300000 0.610000
v 0.670000 1.300000 0.610000
v 0.670000 1.400000 0.610000
v 0.350000 1.300000 0.600000
v 0.350000 1.400000 0.600000
v 0.350000 1.500000 0.600000
v 0.650000 1.500000 0.600000
v 0.650000 1.400000 0.600000
v 0.650000 1.300000 0.600000
v 0.670000 1.400000 0.600000
v 0.700000 1.300000 0.600000
v 0.710000 1.300000 0.600000
v 0.290000 1.300000 0.600000
v 0.300000 1.300000 0.600000
v 0.330000 1.300000 0.600000
v 0.670000 1.300000 0.600000
v 0.330000 1.500000 0.400000
vn 0.000000 0.000000 -1.000000
vn -1.000000 0.000000 0.000000
vn 0.000000 1.000000 0.000000
vn 1.000000 0.000000 0.000000
vn 0.000000 0.000000 1.000000
vn 0.000000 -1.000000 0.000000
usemtl Dress
s off
f 4//1 9//1 14//1
f 18//2 1//2 21//2
f 22//3 23//3 18//3
f 26//4 28//4 3//4
f 4//3 3//3 28//3
f 5//2 4//2 32//2
f 6//3 5//3 30//3
f 36//4 39//4 41//4
f 43//5 8//5 7//5
f 9//4 8//4 43//4
f 10//3 45//3 47//3
f 47//4 11//4 10//4
f 48//6 49//6 52//6
f 11//6 51//6 53//6
f 13//2 12//2 54//2
f 14//3 13//3 56//3
f 15//2 14//2 57//2
f 19//5 16//5 15//5
f 59//5 17//5 21//5
f 62//5 63//5 52//5
f 24//4 69//4 70//4
f 22//4 70//4 25//4
f 71//2 34//2 30//2
f 35//2 71//2 72//2
f 74//3 38//3 37//3
f 76//3 47//3 46//3
f 76//4 51//4 47//4
f 77//2 54//2 52//2
f 54//3 77//3 78//3
f 63//2 59//2 60//2
f 68//3 62//3 61//3
f 63//3 78//3 64//3
f 66//3 65//3 75//3
f 80//4 74//4 67//4
f 58//5 81//5 20//5
f 60//5 21//5 20//5
f 60//6 25//6 70//6
f 39//6 71//6 33//6
f 73//1 72//1 38//1
f 60//1 70//1 69//1
f 57//5 44//5 29//5
f 58//5 27//5 26//5
f 40//5 32//5 31//5
f 75//2 46//2 53//2
f 55//4 78//4 48//4
f 49//1 68//1 50//1
f 15//1 16//1 1//1
f 12//1 13//1 14//1
f 15//1 1//1 2//1
f 11//1 12//1 14//1
f 3//1 15//1 2//1
f 4//1 5//1 6//1
f 14//1 15//1 3//1
f 4//1 6//1 7//1
f 14//1 3//1 4//1
f 9//1 10//1 11//1
f 9//1 4//1 7//1
f 9//1 11//1 14//1
f 7//1 8//1 9//1
f 19//5 20//5 21//5
f 21//2 17//2 18//2
f 19//2 1//2 16//2
f 1//2 19//2 21//2
f 18//3 24//3 22//3
f 23//3 1//3 18//3
f 1//3 23//3 2//3
f 26//4 23//4 25//4
f 26//4 3//4 2//4
f 26//5 27//5 28//5
f 2//4 23//4 26//4
f 29//3 4//3 28//3
f 32//2 33//2 30//2
f 29//5 31//5 32//5
f 32//2 4//2 29//2
f 32//2 30//2 5//2
f 30//3 36//3 6//3
f 36//3 30//3 34//3
f 34//3 35//3 36//3
f 41//4 42//4 7//4
f 39//5 40//5 41//5
f 37//4 38//4 39//4
f 41//4 7//4 6//4
f 36//4 37//4 39//4
f 41//4 6//4 36//4
f 42//3 43//3 7//3
f 44//4 9//4 43//4
f 45//3 10//3 9//3
f 45//5 46//5 47//5
f 9//3 44//3 45//3
f 50//6 51//6 52//6
f 52//6 12//6 48//6
f 49//6 50//6 52//6
f 48//6 12//6 11//6
f 51//6 50//6 53//6
f 53//6 48//6 11//6
f 56//3 57//3 14//3
f 54//5 55//5 56//5
f 56//3 13//3 54//3
f 58//2 15//2 57//2
f 58//6 19//6 15//6
f 60//6 59//6 21//6
f 66//5 67//5 37//5
f 37//5 36//5 35//5
f 59//5 24//5 18//5
f 37//5 35//5 61//5
f 18//5 17//5 59//5
f 66//5 37//5 61//5
f 62//5 24//5 59//5
f 51//5 61//5 62//5
f 51//5 65//5 66//5
f 62//5 52//5 51//5
f 62//5 59//5 63//5
f 63//5 64//5 52//5
f 51//5 66//5 61//5
f 69//4 24//4 62//4
f 24//4 70//4 22//4
f 62//4 68//4 69//4
f 23//4 22//4 25//4
f 33//2 71//2 30//2
f 72//2 61//2 35//2
f 61//2 72//2 73//2
f 35//2 34//2 71//2
f 67//5 74//5 37//5
f 75//3 76//3 46//3
f 51//4 76//4 65//4
f 51//4 11//4 47//4
f 52//2 64//2 77//2
f 54//2 12//2 52//2
f 55//3 54//3 78//3
f 79//2 63//2 60//2
f 73//3 68//3 61//3
f 78//3 63//3 79//3
f 78//3 77//3 64//3
f 75//3 80//3 66//3
f 65//3 76//3 75//3
f 66//4 80//4 67//4
f 19//5 58//5 20//5
f 81//6 60//6 20//6
f 25//6 60//6 81//6
f 81//6 26//6 25//6
f 33//6 40//6 39//6
f 40//6 33//6 32//6
f 38//1 74//1 80//1
f 71//1 39//1 38//1
f 38//1 72//1 71//1
f 38//1 80//1 73//1
f 69//1 79//1 60//1
f 79//1 69//1 68//1
f 28//5 27//5 58//5
f 41//5 31//5 29//5
f 28//5 58//5 57//5
f 42//5 41//5 29//5
f 29//5 28//5 57//5
f 57//5 56//5 48//5
f 44//5 53//5 45//5
f 44//5 43//5 42//5
f 48//5 53//5 44//5
f 44//5 57//5 48//5
f 44//5 42//5 29//5
f 81//5 58//5 26//5
f 41//5 40//5 31//5
f 53//2 50//2 75//2
f 46//5 45//5 53//5
f 78//4 49//4 48//4
f 48//5 56//5 55//5
f 79//1 49//1 78//1
f 80//1 75//1 50//1
f 50//1 73//1 80//1
f 49//1 79//1 68//1
f 68//1 73//1 50//1
o Lower_Cube.008
v 0.290000 1.000000 0.390000
v 0.710000 1.000000 0.390000
v 0.710000 0.800000 0.390000
v 0.290000 0.800000 0.390000
v 0.290000 1.000000 0.610000
v 0.290000 0.800000 0.610000
v 0.300000 1.000000 0.400000
v 0.710000 1.000000 0.610000
v 0.700000 1.000000 0.600000
v 0.300000 1.000000 0.600000
v 0.700000 1.000000 0.400000
v 0.710000 0.800000 0.610000
v 0.300000 0.800000 0.400000
v 0.700000 0.800000 0.600000
v 0.700000 0.800000 0.400000
v 0.300000 0.800000 0.600000
vn 0.000000 0.000000 -1.000000
vn -1.000000 0.000000 0.000000
vn 0.000000 1.000000 0.000000
vn 1.000000 0.000000 0.000000
vn 0.000000 -1.000000 -0.000000
vn 0.000000 0.000000 1.000000
usemtl Dress
s off
f 83//7 84//7 85//7
f 82//8 85//8 87//8
f 88//9 86//9 91//9
f 92//9 90//9 89//9
f 89//10 93//10 84//10
f 85//11 84//11 96//11
f 97//11 95//11 87//11
f 86//12 87//12 93//12
f 94//12 96//12 92//12
f 97//10 94//10 88//10
f 96//8 95//8 90//8
f 95//7 97//7 91//7
f 82//7 83//7 85//7
f 86//8 82//8 87//8
f 89//9 90//9 91//9
f 86//9 88//9 82//9
f 86//9 89//9 91//9
f 83//9 82//9 88//9
f 92//9 89//9 83//9
f 83//9 88//9 92//9
f 83//10 89//10 84//10
f 93//11 95//11 96//11
f 96//11 94//11 85//11
f 84//11 93//11 96//11
f 87//11 85//11 94//11
f 95//11 93//11 87//11
f 87//11 94//11 97//11
f 89//12 86//12 93//12
f 88//12 94//12 92//12
f 91//10 97//10 88//10
f 92//8 96//8 90//8
f 90//7 95//7 91//7
