# Blender v2.75 (sub 0) OBJ File: 'window.blend'
# www.blender.org
mtllib window.mtl
o Cube_Cube.009
v 0.300000 2.850000 0.050000
v 0.300000 2.950000 0.050000
v 0.400000 2.850000 0.050000
v 0.400000 2.950000 0.050000
v 0.300000 2.850000 1.950000
v 0.300000 2.950000 1.950000
v 0.400000 2.850000 1.950000
v 0.400000 2.950000 1.950000
vn 0.000000 0.000000 -1.000000
vn 1.000000 0.000000 0.000000
vn 0.000000 0.000000 1.000000
vn -1.000000 0.000000 0.000000
vn 0.000000 -1.000000 0.000000
vn 0.000000 1.000000 0.000000
usemtl Blinds
s off
f 4//1 3//1 1//1
f 8//2 7//2 3//2
f 6//3 5//3 7//3
f 2//4 1//4 5//4
f 3//5 7//5 5//5
f 8//6 4//6 2//6
f 2//1 4//1 1//1
f 4//2 8//2 3//2
f 8//3 6//3 7//3
f 6//4 2//4 5//4
f 1//5 3//5 5//5
f 6//6 8//6 2//6
o TopGlass02_Cube.003
v 0.475000 2.050000 0.050000
v 0.475000 2.950000 0.050000
v 0.525000 2.050000 0.050000
v 0.525000 2.950000 0.050000
v 0.475000 2.050000 0.950000
v 0.475000 2.950000 0.950000
v 0.525000 2.050000 0.950000
v 0.525000 2.950000 0.950000
vn 0.000000 0.000000 -1.000000
vn 1.000000 0.000000 0.000000
vn 0.000000 0.000000 1.000000
vn -1.000000 0.000000 0.000000
vn 0.000000 -1.000000 0.000000
vn 0.000000 1.000000 0.000000
usemtl Glass
s off
f 12//7 11//7 9//7
f 16//8 15//8 11//8
f 14//9 13//9 15//9
f 10//10 9//10 13//10
f 11//11 15//11 13//11
f 16//12 12//12 10//12
f 10//7 12//7 9//7
f 12//8 16//8 11//8
f 16//9 14//9 15//9
f 14//10 10//10 13//10
f 9//11 11//11 13//11
f 14//12 16//12 10//12
o Glass01_Cube.002
v 0.500000 0.100000 1.000000
v 0.500000 1.900000 1.000000
v 0.550000 0.100000 1.000000
v 0.550000 1.900000 1.000000
v 0.500000 0.100000 1.900000
v 0.500000 1.900000 1.900000
v 0.550000 0.100000 1.900000
v 0.550000 1.900000 1.900000
vn 0.000000 0.000000 -1.000000
vn 1.000000 0.000000 0.000000
vn 0.000000 0.000000 1.000000
vn -1.000000 0.000000 0.000000
vn 0.000000 -1.000000 0.000000
vn 0.000000 1.000000 0.000000
usemtl Glass
s off
f 20//13 19//13 17//13
f 24//14 23//14 19//14
f 22//15 21//15 23//15
f 18//16 17//16 21//16
f 19//17 23//17 21//17
f 24//18 20//18 18//18
f 18//13 20//13 17//13
f 20//14 24//14 19//14
f 24//15 22//15 23//15
f 22//16 18//16 21//16
f 17//17 19//17 21//17
f 22//18 24//18 18//18
o TopGlass01_Cube.004
v 0.475000 2.050000 1.050000
v 0.475000 2.950000 1.050000
v 0.525000 2.050000 1.050000
v 0.525000 2.950000 1.050000
v 0.475000 2.050000 1.950000
v 0.475000 2.950000 1.950000
v 0.525000 2.050000 1.950000
v 0.525000 2.950000 1.950000
vn 0.000000 0.000000 -1.000000
vn 1.000000 0.000000 0.000000
vn 0.000000 0.000000 1.000000
vn -1.000000 0.000000 0.000000
vn 0.000000 -1.000000 0.000000
vn 0.000000 1.000000 0.000000
usemtl Glass
s off
f 28//19 27//19 25//19
f 32//20 31//20 27//20
f 30//21 29//21 31//21
f 26//22 25//22 29//22
f 27//23 31//23 29//23
f 32//24 28//24 26//24
f 26//19 28//19 25//19
f 28//20 32//20 27//20
f 32//21 30//21 31//21
f 30//22 26//22 29//22
f 25//23 27//23 29//23
f 30//24 32//24 26//24
o Frame_Cube.001
v 0.400000 3.000000 0.000000
v 0.600000 3.000001 0.000000
v 0.600000 0.000000 0.000000
v 0.400000 0.000000 0.000000
v 0.400000 0.050000 0.050000
v 0.400000 1.950000 0.050000
v 0.400000 2.050000 0.050000
v 0.400000 2.950000 0.050000
v 0.400000 2.950000 0.950000
v 0.400000 3.000000 2.000000
v 0.600000 3.000001 2.000000
v 0.600000 2.950000 0.950000
v 0.600000 2.950000 0.050000
v 0.600000 2.050000 0.050000
v 0.600000 1.950000 0.050000
v 0.600000 0.050000 0.050000
v 0.600000 0.000000 2.000000
v 0.400000 0.000000 2.000000
v 0.400000 1.950000 1.950000
v 0.400000 0.050000 1.950000
v 0.400000 2.050000 0.950000
v 0.400000 2.050000 1.050000
v 0.400000 2.950000 1.050000
v 0.400000 2.950000 1.950000
v 0.400000 2.050000 1.950000
v 0.600000 1.950000 1.950000
v 0.600000 2.050000 0.950000
v 0.600000 2.050000 1.050000
v 0.600000 2.050000 1.950000
v 0.600000 2.950000 1.950000
v 0.600000 2.950000 1.050000
v 0.600000 0.050000 1.950000
vn 0.000000 0.000000 -1.000000
vn -1.000000 0.000000 0.000000
vn -0.000000 1.000000 0.000000
vn 1.000000 0.000000 0.000000
vn 0.000000 -1.000000 0.000000
vn 0.000000 0.000000 1.000000
usemtl Wall
s off
f 33//25 34//25 35//25
f 33//26 36//26 38//26
f 43//27 34//27 33//27
f 34//28 45//28 46//28
f 35//29 49//29 50//29
f 50//26 42//26 51//26
f 38//30 37//30 48//30
f 41//26 54//26 55//26
f 54//26 51//26 57//26
f 39//30 46//30 45//30
f 40//29 45//29 44//29
f 42//30 50//30 49//30
f 58//28 47//28 60//28
f 43//28 63//28 44//28
f 48//28 64//28 49//28
f 64//25 52//25 51//25
f 52//27 64//27 48//27
f 38//29 47//29 58//29
f 59//25 53//25 41//25
f 53//27 59//27 46//27
f 54//30 60//30 63//30
f 55//29 63//29 62//29
f 57//27 61//27 60//27
f 61//25 57//25 56//25
f 36//25 33//25 35//25
f 41//26 42//26 33//26
f 33//26 39//26 40//26
f 40//26 41//26 33//26
f 38//26 36//26 37//26
f 33//26 38//26 39//26
f 42//27 43//27 33//27
f 46//28 47//28 34//28
f 35//28 47//28 48//28
f 34//28 44//28 45//28
f 35//28 34//28 47//28
f 34//28 43//28 44//28
f 36//29 35//29 50//29
f 52//26 37//26 36//26
f 50//26 51//26 52//26
f 52//26 36//26 50//26
f 47//30 38//30 48//30
f 55//26 56//26 42//26
f 41//26 53//26 54//26
f 55//26 42//26 41//26
f 53//26 39//26 38//26
f 42//26 56//26 57//26
f 54//26 53//26 38//26
f 51//26 42//26 57//26
f 51//26 54//26 38//26
f 40//30 39//30 45//30
f 41//29 40//29 44//29
f 43//30 42//30 49//30
f 61//28 62//28 43//28
f 47//28 46//28 59//28
f 61//28 43//28 58//28
f 47//28 59//28 60//28
f 60//28 61//28 58//28
f 60//28 59//28 44//28
f 43//28 62//28 63//28
f 63//28 60//28 44//28
f 58//28 43//28 49//28
f 49//28 35//28 48//28
f 64//28 58//28 49//28
f 58//25 64//25 51//25
f 37//27 52//27 48//27
f 51//29 38//29 58//29
f 44//25 59//25 41//25
f 39//27 53//27 46//27
f 55//30 54//30 63//30
f 56//29 55//29 62//29
f 54//27 57//27 60//27
f 62//25 61//25 56//25
o Glass02_Cube.005
v 0.450000 0.100000 0.100000
v 0.450000 1.900000 0.100000
v 0.500000 0.100000 0.100000
v 0.500000 1.900000 0.100000
v 0.450000 0.100000 1.000000
v 0.450000 1.900000 1.000000
v 0.500000 0.100000 1.000000
v 0.500000 1.900000 1.000000
vn 0.000000 0.000000 -1.000000
vn 1.000000 0.000000 0.000000
vn 0.000000 0.000000 1.000000
vn -1.000000 0.000000 0.000000
vn 0.000000 -1.000000 0.000000
vn 0.000000 1.000000 0.000000
usemtl Glass
s off
f 68//31 67//31 65//31
f 72//32 71//32 67//32
f 70//33 69//33 71//33
f 66//34 65//34 69//34
f 67//35 71//35 69//35
f 72//36 68//36 66//36
f 66//31 68//31 65//31
f 68//32 72//32 67//32
f 72//33 70//33 71//33
f 70//34 66//34 69//34
f 65//35 67//35 69//35
f 70//36 72//36 66//36
o Glass01.002_Cube.007
v 0.425000 1.950000 0.050000
v 0.525000 1.950000 0.050000
v 0.525000 0.050000 0.050000
v 0.425000 0.050000 0.050000
v 0.425000 0.100000 0.100000
v 0.425000 0.050000 1.050000
v 0.425000 1.950000 1.050000
v 0.425000 1.900000 1.000000
v 0.425000 0.100000 1.000000
v 0.425000 1.900000 0.100000
v 0.525000 1.950000 1.050000
v 0.525000 1.900000 0.100000
v 0.525000 0.100000 0.100000
v 0.525000 1.900000 1.000000
v 0.525000 0.100000 1.000000
v 0.525000 0.050000 1.050000
vn 0.000000 0.000000 -1.000000
vn -1.000000 0.000000 0.000000
vn 0.000000 1.000000 0.000000
vn 1.000000 0.000000 0.000000
vn 0.000000 -1.000000 0.000000
vn 0.000000 0.000000 1.000000
usemtl Wall
s off
f 74//37 75//37 76//37
f 76//38 78//38 81//38
f 82//38 80//38 73//38
f 83//39 74//39 73//39
f 84//40 85//40 74//40
f 87//40 86//40 88//40
f 75//41 88//41 78//41
f 79//42 78//42 88//42
f 77//42 85//42 84//42
f 82//41 84//41 86//41
f 81//39 87//39 85//39
f 87//37 81//37 80//37
f 73//37 74//37 76//37
f 79//38 80//38 81//38
f 81//38 77//38 76//38
f 78//38 79//38 81//38
f 76//38 77//38 82//38
f 80//38 79//38 73//38
f 73//38 76//38 82//38
f 79//39 83//39 73//39
f 83//40 86//40 84//40
f 85//40 75//40 74//40
f 74//40 83//40 84//40
f 88//40 75//40 85//40
f 86//40 83//40 88//40
f 88//40 85//40 87//40
f 76//41 75//41 78//41
f 83//42 79//42 88//42
f 82//42 77//42 84//42
f 80//41 82//41 86//41
f 77//39 81//39 85//39
f 86//37 87//37 80//37
o Glass01.001_Cube.008
v 0.475000 1.950000 0.950000
v 0.575000 1.950000 0.950000
v 0.575000 0.050000 0.950000
v 0.475000 0.050000 0.950000
v 0.475000 0.100000 1.000000
v 0.475000 0.050000 1.950000
v 0.475000 1.950000 1.950000
v 0.475000 1.900000 1.900000
v 0.475000 0.100000 1.900000
v 0.475000 1.900000 1.000000
v 0.575000 1.950000 1.950000
v 0.575000 1.900000 1.000000
v 0.575000 0.100000 1.000000
v 0.575000 1.900000 1.900000
v 0.575000 0.100000 1.900000
v 0.575000 0.050000 1.950000
vn 0.000000 0.000000 -1.000000
vn -1.000000 -0.000000 0.000000
vn 0.000000 1.000000 0.000000
vn 1.000000 0.000000 0.000000
vn 0.000000 -1.000000 0.000000
vn 0.000000 0.000000 1.000000
usemtl Wall
s off
f 90//43 91//43 92//43
f 92//44 94//44 97//44
f 98//44 96//44 89//44
f 99//45 90//45 89//45
f 100//46 101//46 90//46
f 103//46 102//46 104//46
f 91//47 104//47 94//47
f 95//48 94//48 104//48
f 93//48 101//48 100//48
f 98//47 100//47 102//47
f 97//45 103//45 101//45
f 103//43 97//43 96//43
f 89//43 90//43 92//43
f 95//44 96//44 97//44
f 97//44 93//44 92//44
f 94//44 95//44 97//44
f 92//44 93//44 98//44
f 96//44 95//44 89//44
f 89//44 92//44 98//44
f 95//45 99//45 89//45
f 99//46 102//46 100//46
f 101//46 91//46 90//46
f 90//46 99//46 100//46
f 104//46 91//46 101//46
f 102//46 99//46 104//46
f 104//46 101//46 103//46
f 92//47 91//47 94//47
f 99//48 95//48 104//48
f 98//48 93//48 100//48
f 96//47 98//47 102//47
f 93//45 97//45 101//45
f 102//43 103//43 96//43
o Cube.001_Cube.010
v 0.340000 1.850000 0.100000
v 0.340000 2.850000 0.100000
v 0.360000 1.850000 0.100000
v 0.360000 2.850000 0.100000
v 0.340000 1.850000 1.900000
v 0.340000 2.850000 1.900000
v 0.360000 1.850000 1.900000
v 0.360000 2.850000 1.900000
vn 0.000000 0.000000 -1.000000
vn 1.000000 0.000000 0.000000
vn 0.000000 0.000000 1.000000
vn -1.000000 0.000000 0.000000
vn 0.000000 -1.000000 0.000000
vn 0.000000 1.000000 0.000000
usemtl Blinds
s off
f 108//49 107//49 105//49
f 112//50 111//50 107//50
f 110//51 109//51 111//51
f 106//52 105//52 109//52
f 107//53 111//53 109//53
f 112//54 108//54 106//54
f 106//49 108//49 105//49
f 108//50 112//50 107//50
f 112//51 110//51 111//51
f 110//52 106//52 109//52
f 105//53 107//53 109//53
f 110//54 112//54 106//54
