# Blender v2.75 (sub 0) OBJ File: 'table.blend'
# www.blender.org
mtllib table.mtl
o Table_Cube.001
v 0.000000 1.200000 0.000000
v 0.100000 1.200000 0.000000
v 0.100000 1.000000 0.000000
v 1.900000 1.000000 0.000000
v 1.900000 1.200000 0.000000
v 2.000000 1.200000 0.000000
v 2.000000 0.000000 0.000000
v 1.900000 0.000000 0.000000
v 1.900000 0.900000 0.000000
v 0.100000 0.900000 0.000000
v 0.100000 0.000000 0.000000
v 0.000000 0.000000 0.000000
v 0.000000 1.200000 1.000000
v 0.000000 0.000000 1.000000
v 2.000000 1.200000 1.000000
v 1.900000 1.200000 0.900000
v 0.100000 1.200000 0.900000
v 2.000000 0.000000 1.000000
v 0.100000 0.000000 0.900000
v 1.900000 0.000000 0.900000
v 1.900000 0.900000 0.900000
v 0.100000 0.900000 0.900000
v 1.900000 1.000000 0.900000
v 0.100000 1.000000 0.900000
vn 0.000000 0.000000 -1.000000
vn -1.000000 0.000000 0.000000
vn 0.000000 1.000000 -0.000000
vn 1.000000 0.000000 0.000000
vn 0.000000 -1.000000 0.000000
vn 0.000000 0.000000 1.000000
usemtl DarkWood
s off
f 3//1 4//1 9//1
f 1//2 12//2 14//2
f 13//3 15//3 16//3
f 15//4 18//4 7//4
f 19//5 20//5 14//5
f 8//2 20//2 21//2
f 9//5 21//5 22//5
f 10//4 22//4 19//4
f 13//6 14//6 18//6
f 20//1 19//1 22//1
f 5//2 4//2 23//2
f 16//1 23//1 24//1
f 3//3 24//3 23//3
f 2//4 17//4 24//4
f 10//1 12//1 1//1
f 7//1 8//1 9//1
f 10//1 11//1 12//1
f 6//1 7//1 9//1
f 3//1 1//1 2//1
f 4//1 6//1 9//1
f 10//1 1//1 3//1
f 4//1 5//1 6//1
f 9//1 10//1 3//1
f 13//2 1//2 14//2
f 17//3 1//3 13//3
f 6//3 5//3 16//3
f 17//3 2//3 1//3
f 15//3 6//3 16//3
f 16//3 17//3 13//3
f 6//4 15//4 7//4
f 20//5 7//5 18//5
f 19//5 12//5 11//5
f 20//5 8//5 7//5
f 14//5 12//5 19//5
f 20//5 18//5 14//5
f 9//2 8//2 21//2
f 10//5 9//5 22//5
f 11//4 10//4 19//4
f 15//6 13//6 18//6
f 21//1 20//1 22//1
f 16//2 5//2 23//2
f 17//1 16//1 24//1
f 4//3 3//3 23//3
f 3//4 2//4 24//4
