# Blender v2.75 (sub 0) OBJ File: 'floor.blend'
# www.blender.org
mtllib floor.mtl
o Tile_Cube.001
v 0.005000 1.000000 0.005000
v 0.995000 1.000000 0.005000
v 0.005000 1.000000 0.995000
v 0.995000 1.000000 0.995000
vn 0.000000 1.000000 0.000000
usemtl Floor
s off
f 4//1 2//1 1//1
f 3//1 4//1 1//1
o Edge_Cube
v 0.000000 1.000000 0.000000
v 1.000000 1.000000 0.000000
v 0.000000 1.000000 1.000000
v 0.005000 1.000000 0.005000
v 0.995000 1.000000 0.005000
v 0.995000 1.000000 0.995000
v 1.000000 1.000000 1.000000
v 0.005000 1.000000 0.995000
vn 0.000000 1.000000 0.000000
usemtl Edge
s off
f 8//2 9//2 6//2
f 7//2 11//2 12//2
f 10//2 11//2 6//2
f 6//2 5//2 8//2
f 9//2 10//2 6//2
f 12//2 8//2 5//2
f 11//2 10//2 12//2
f 12//2 5//2 7//2
