# Blender v2.75 (sub 0) OBJ File: 'desk.blend'
# www.blender.org
mtllib desk.mtl
o BottomPillar_Cube
v 0.125000 0.150000 0.275000
v 0.125000 0.200000 0.275000
v 0.875000 0.150000 0.275000
v 0.875000 0.200000 0.275000
v 0.125000 0.150000 0.325000
v 0.125000 0.200000 0.325000
v 0.875000 0.150000 0.325000
v 0.875000 0.200000 0.325000
vn 0.000000 0.000000 -1.000000
vn 1.000000 0.000000 0.000000
vn 0.000000 0.000000 1.000000
vn -1.000000 0.000000 0.000000
vn 0.000000 -1.000000 0.000000
vn 0.000000 1.000000 0.000000
usemtl Metal
s off
f 4//1 3//1 1//1
f 8//2 7//2 3//2
f 6//3 5//3 7//3
f 2//4 1//4 5//4
f 3//5 7//5 5//5
f 8//6 4//6 2//6
f 2//1 4//1 1//1
f 4//2 8//2 3//2
f 8//3 6//3 7//3
f 6//4 2//4 5//4
f 1//5 3//5 5//5
f 6//6 8//6 2//6
o RightLeg_Cube.004
v 0.875000 0.000000 0.200000
v 0.875000 0.050000 0.200000
v 0.925000 0.000000 0.200000
v 0.925000 0.050000 0.200000
v 0.875000 0.000000 0.800000
v 0.875000 0.050000 0.800000
v 0.925000 0.000000 0.800000
v 0.925000 0.050000 0.800000
vn 0.000000 0.000000 -1.000000
vn 1.000000 0.000000 0.000000
vn 0.000000 0.000000 1.000000
vn -1.000000 0.000000 0.000000
vn 0.000000 -1.000000 0.000000
vn 0.000000 1.000000 0.000000
usemtl Metal
s off
f 12//7 11//7 9//7
f 16//8 15//8 11//8
f 14//9 13//9 15//9
f 10//10 9//10 13//10
f 11//11 15//11 13//11
f 16//12 12//12 10//12
f 10//7 12//7 9//7
f 12//8 16//8 11//8
f 16//9 14//9 15//9
f 14//10 10//10 13//10
f 9//11 11//11 13//11
f 14//12 16//12 10//12
o RightPillar_Cube.002
v 0.875000 0.050000 0.275000
v 0.875000 0.960000 0.275000
v 0.925000 0.050000 0.275000
v 0.925000 0.960000 0.275000
v 0.875000 0.050000 0.325000
v 0.875000 0.960000 0.325000
v 0.925000 0.050000 0.325000
v 0.925000 0.960000 0.325000
vn 0.000000 0.000000 -1.000000
vn 1.000000 0.000000 0.000000
vn 0.000000 0.000000 1.000000
vn -1.000000 0.000000 0.000000
vn 0.000000 -1.000000 0.000000
vn 0.000000 1.000000 0.000000
usemtl Metal
s off
f 20//13 19//13 17//13
f 24//14 23//14 19//14
f 22//15 21//15 23//15
f 18//16 17//16 21//16
f 19//17 23//17 21//17
f 24//18 20//18 18//18
f 18//13 20//13 17//13
f 20//14 24//14 19//14
f 24//15 22//15 23//15
f 22//16 18//16 21//16
f 17//17 19//17 21//17
f 22//18 24//18 18//18
o Surface_Cube.001
v 0.010000 0.960000 0.210000
v 0.010000 1.000000 0.210000
v 0.990000 0.960000 0.210000
v 0.990000 1.000000 0.210000
v 0.010000 0.960000 0.790000
v 0.010000 1.000000 0.790000
v 0.990000 0.960000 0.790000
v 0.990000 1.000000 0.790000
vn 0.000000 0.000000 -1.000000
vn 1.000000 0.000000 0.000000
vn 0.000000 0.000000 1.000000
vn -1.000000 0.000000 0.000000
vn 0.000000 -1.000000 0.000000
vn 0.000000 1.000000 0.000000
usemtl Wood
s off
f 28//19 27//19 25//19
f 32//20 31//20 27//20
f 30//21 29//21 31//21
f 26//22 25//22 29//22
f 27//23 31//23 29//23
f 32//24 28//24 26//24
f 26//19 28//19 25//19
f 28//20 32//20 27//20
f 32//21 30//21 31//21
f 30//22 26//22 29//22
f 25//23 27//23 29//23
f 30//24 32//24 26//24
o LeftPillar_Cube.003
v 0.075000 0.050000 0.275000
v 0.075000 0.960000 0.275000
v 0.125000 0.050000 0.275000
v 0.125000 0.960000 0.275000
v 0.075000 0.050000 0.325000
v 0.075000 0.960000 0.325000
v 0.125000 0.050000 0.325000
v 0.125000 0.960000 0.325000
vn 0.000000 0.000000 -1.000000
vn 1.000000 0.000000 0.000000
vn 0.000000 0.000000 1.000000
vn -1.000000 0.000000 0.000000
vn 0.000000 -1.000000 0.000000
vn 0.000000 1.000000 0.000000
usemtl Metal
s off
f 36//25 35//25 33//25
f 40//26 39//26 35//26
f 38//27 37//27 39//27
f 34//28 33//28 37//28
f 35//29 39//29 37//29
f 40//30 36//30 34//30
f 34//25 36//25 33//25
f 36//26 40//26 35//26
f 40//27 38//27 39//27
f 38//28 34//28 37//28
f 33//29 35//29 37//29
f 38//30 40//30 34//30
o LeftLeg_Cube.005
v 0.075000 0.000000 0.200000
v 0.075000 0.050000 0.200000
v 0.125000 0.000000 0.200000
v 0.125000 0.050000 0.200000
v 0.075000 0.000000 0.800000
v 0.075000 0.050000 0.800000
v 0.125000 0.000000 0.800000
v 0.125000 0.050000 0.800000
vn 0.000000 0.000000 -1.000000
vn 1.000000 0.000000 0.000000
vn 0.000000 0.000000 1.000000
vn -1.000000 0.000000 0.000000
vn 0.000000 -1.000000 0.000000
vn 0.000000 1.000000 0.000000
usemtl Metal
s off
f 44//31 43//31 41//31
f 48//32 47//32 43//32
f 46//33 45//33 47//33
f 42//34 41//34 45//34
f 43//35 47//35 45//35
f 48//36 44//36 42//36
f 42//31 44//31 41//31
f 44//32 48//32 43//32
f 48//33 46//33 47//33
f 46//34 42//34 45//34
f 41//35 43//35 45//35
f 46//36 48//36 42//36
o NetH_Cube.006
v 0.100000 0.960000 0.695000
v 0.110000 0.960000 0.695000
v 0.110000 0.775000 0.695000
v 0.110000 0.770000 0.695000
v 0.890000 0.770000 0.695000
v 0.890000 0.775000 0.695000
v 0.890000 0.960000 0.695000
v 0.900000 0.960000 0.695000
v 0.900000 0.760000 0.695000
v 0.100000 0.760000 0.695000
v 0.100000 0.960000 0.705000
v 0.100000 0.760000 0.705000
v 0.110000 0.960000 0.705000
v 0.890000 0.960000 0.705000
v 0.900000 0.960000 0.705000
v 0.900000 0.760000 0.705000
v 0.890000 0.775000 0.705000
v 0.890000 0.770000 0.705000
v 0.110000 0.770000 0.705000
v 0.110000 0.775000 0.705000
v 0.100000 0.960000 0.595000
v 0.110000 0.960000 0.595000
v 0.110000 0.775000 0.595000
v 0.110000 0.770000 0.595000
v 0.890000 0.770000 0.595000
v 0.890000 0.775000 0.595000
v 0.890000 0.960000 0.595000
v 0.900000 0.960000 0.595000
v 0.900000 0.760000 0.595000
v 0.100000 0.760000 0.595000
v 0.100000 0.960000 0.605000
v 0.100000 0.760000 0.605000
v 0.110000 0.960000 0.605000
v 0.890000 0.960000 0.605000
v 0.900000 0.960000 0.605000
v 0.900000 0.760000 0.605000
v 0.890000 0.775000 0.605000
v 0.890000 0.770000 0.605000
v 0.110000 0.770000 0.605000
v 0.110000 0.775000 0.605000
v 0.100000 0.960000 0.495000
v 0.110000 0.960000 0.495000
v 0.110000 0.775000 0.495000
v 0.110000 0.770000 0.495000
v 0.890000 0.770000 0.495000
v 0.890000 0.775000 0.495000
v 0.890000 0.960000 0.495000
v 0.900000 0.960000 0.495000
v 0.900000 0.760000 0.495000
v 0.100000 0.760000 0.495000
v 0.100000 0.960000 0.505000
v 0.100000 0.760000 0.505000
v 0.110000 0.960000 0.505000
v 0.890000 0.960000 0.505000
v 0.900000 0.960000 0.505000
v 0.900000 0.760000 0.505000
v 0.890000 0.775000 0.505000
v 0.890000 0.770000 0.505000
v 0.110000 0.770000 0.505000
v 0.110000 0.775000 0.505000
v 0.100000 0.960000 0.395000
v 0.110000 0.960000 0.395000
v 0.110000 0.775000 0.395000
v 0.110000 0.770000 0.395000
v 0.890000 0.770000 0.395000
v 0.890000 0.775000 0.395000
v 0.890000 0.960000 0.395000
v 0.900000 0.960000 0.395000
v 0.900000 0.760000 0.395000
v 0.100000 0.760000 0.395000
v 0.100000 0.960000 0.405000
v 0.100000 0.760000 0.405000
v 0.110000 0.960000 0.405000
v 0.890000 0.960000 0.405000
v 0.900000 0.960000 0.405000
v 0.900000 0.760000 0.405000
v 0.890000 0.775000 0.405000
v 0.890000 0.770000 0.405000
v 0.110000 0.770000 0.405000
v 0.110000 0.775000 0.405000
vn 0.000000 0.000000 -1.000000
vn -1.000000 0.000000 0.000000
vn 0.000000 1.000000 0.000000
vn 1.000000 0.000000 0.000000
vn 0.000000 -1.000000 0.000000
vn 0.000000 0.000000 1.000000
usemtl Paint
s off
f 52//37 53//37 58//37
f 49//38 58//38 60//38
f 61//39 50//39 49//39
f 63//39 56//39 55//39
f 63//40 64//40 57//40
f 57//41 64//41 60//41
f 66//42 67//42 64//42
f 62//38 55//38 54//38
f 50//40 61//40 68//40
f 65//38 54//38 53//38
f 52//39 67//39 66//39
f 68//40 67//40 52//40
f 72//37 73//37 78//37
f 69//38 78//38 80//38
f 81//39 70//39 69//39
f 83//39 76//39 75//39
f 83//40 84//40 77//40
f 77//41 84//41 80//41
f 86//42 87//42 84//42
f 82//38 75//38 74//38
f 70//40 81//40 88//40
f 85//38 74//38 73//38
f 72//39 87//39 86//39
f 88//40 87//40 72//40
f 92//37 93//37 98//37
f 89//38 98//38 100//38
f 101//39 90//39 89//39
f 103//39 96//39 95//39
f 103//40 104//40 97//40
f 97//41 104//41 100//41
f 106//42 107//42 104//42
f 102//38 95//38 94//38
f 90//40 101//40 108//40
f 105//38 94//38 93//38
f 92//39 107//39 106//39
f 108//40 107//40 92//40
f 112//37 113//37 118//37
f 109//38 118//38 120//38
f 121//39 110//39 109//39
f 123//39 116//39 115//39
f 123//40 124//40 117//40
f 117//41 124//41 120//41
f 126//42 127//42 124//42
f 122//38 115//38 114//38
f 110//40 121//40 128//40
f 125//38 114//38 113//38
f 112//39 127//39 126//39
f 128//40 127//40 112//40
f 54//37 56//37 57//37
f 51//37 49//37 50//37
f 54//37 55//37 56//37
f 58//37 49//37 51//37
f 53//37 54//37 57//37
f 58//37 51//37 52//37
f 53//37 57//37 58//37
f 59//38 49//38 60//38
f 59//39 61//39 49//39
f 62//39 63//39 55//39
f 56//40 63//40 57//40
f 58//41 57//41 60//41
f 68//42 59//42 60//42
f 65//42 63//42 62//42
f 68//42 61//42 59//42
f 64//42 63//42 65//42
f 67//42 68//42 60//42
f 64//42 65//42 66//42
f 67//42 60//42 64//42
f 65//38 62//38 54//38
f 51//40 50//40 68//40
f 66//38 65//38 53//38
f 53//39 52//39 66//39
f 51//40 68//40 52//40
f 74//37 76//37 77//37
f 71//37 69//37 70//37
f 74//37 75//37 76//37
f 78//37 69//37 71//37
f 73//37 74//37 77//37
f 78//37 71//37 72//37
f 73//37 77//37 78//37
f 79//38 69//38 80//38
f 79//39 81//39 69//39
f 82//39 83//39 75//39
f 76//40 83//40 77//40
f 78//41 77//41 80//41
f 88//42 79//42 80//42
f 85//42 83//42 82//42
f 88//42 81//42 79//42
f 84//42 83//42 85//42
f 87//42 88//42 80//42
f 84//42 85//42 86//42
f 87//42 80//42 84//42
f 85//38 82//38 74//38
f 71//40 70//40 88//40
f 86//38 85//38 73//38
f 73//39 72//39 86//39
f 71//40 88//40 72//40
f 94//37 96//37 97//37
f 91//37 89//37 90//37
f 94//37 95//37 96//37
f 98//37 89//37 91//37
f 93//37 94//37 97//37
f 98//37 91//37 92//37
f 93//37 97//37 98//37
f 99//38 89//38 100//38
f 99//39 101//39 89//39
f 102//39 103//39 95//39
f 96//40 103//40 97//40
f 98//41 97//41 100//41
f 108//42 99//42 100//42
f 105//42 103//42 102//42
f 108//42 101//42 99//42
f 104//42 103//42 105//42
f 107//42 108//42 100//42
f 104//42 105//42 106//42
f 107//42 100//42 104//42
f 105//38 102//38 94//38
f 91//40 90//40 108//40
f 106//38 105//38 93//38
f 93//39 92//39 106//39
f 91//40 108//40 92//40
f 114//37 116//37 117//37
f 111//37 109//37 110//37
f 114//37 115//37 116//37
f 118//37 109//37 111//37
f 113//37 114//37 117//37
f 118//37 111//37 112//37
f 113//37 117//37 118//37
f 119//38 109//38 120//38
f 119//39 121//39 109//39
f 122//39 123//39 115//39
f 116//40 123//40 117//40
f 118//41 117//41 120//41
f 128//42 119//42 120//42
f 125//42 123//42 122//42
f 128//42 121//42 119//42
f 124//42 123//42 125//42
f 127//42 128//42 120//42
f 124//42 125//42 126//42
f 127//42 120//42 124//42
f 125//38 122//38 114//38
f 111//40 110//40 128//40
f 126//38 125//38 113//38
f 113//39 112//39 126//39
f 111//40 128//40 112//40
o NetV_Cube.007
v 0.150000 0.970000 0.300000
v 0.160000 0.970000 0.300000
v 0.160000 0.770000 0.300000
v 0.150000 0.770000 0.300000
v 0.150000 0.970000 0.310000
v 0.150000 0.770000 0.750000
v 0.150000 0.780000 0.750000
v 0.150000 0.780000 0.310000
v 0.160000 0.970000 0.310000
v 0.160000 0.770000 0.340000
v 0.160000 0.780000 0.310000
v 0.160000 0.780000 0.340000
v 0.160000 0.770000 0.735000
v 0.160000 0.770000 0.740000
v 0.240000 0.770000 0.740000
v 0.240000 0.770000 0.735000
v 0.240000 0.770000 0.735000
v 0.240000 0.770000 0.300000
v 0.250000 0.770000 0.300000
v 0.250000 0.770000 0.750000
v 0.250000 0.780000 0.750000
v 0.250000 0.780000 0.310000
v 0.240000 0.780000 0.310000
v 0.240000 0.780000 0.735000
v 0.240000 0.780000 0.735000
v 0.240000 0.780000 0.740000
v 0.160000 0.780000 0.740000
v 0.160000 0.780000 0.735000
v 0.240000 0.970000 0.300000
v 0.240000 0.970000 0.310000
v 0.250000 0.970000 0.300000
v 0.250000 0.970000 0.310000
v 0.350000 0.970000 0.300000
v 0.360000 0.970000 0.300000
v 0.360000 0.770000 0.300000
v 0.350000 0.770000 0.300000
v 0.350000 0.970000 0.310000
v 0.350000 0.770000 0.750000
v 0.350000 0.780000 0.750000
v 0.350000 0.780000 0.310000
v 0.360000 0.970000 0.310000
v 0.360000 0.770000 0.340000
v 0.360000 0.780000 0.310000
v 0.360000 0.780000 0.340000
v 0.360000 0.770000 0.735000
v 0.360000 0.770000 0.740000
v 0.440000 0.770000 0.740000
v 0.440000 0.770000 0.735000
v 0.440000 0.770000 0.735000
v 0.440000 0.770000 0.300000
v 0.450000 0.770000 0.300000
v 0.450000 0.770000 0.750000
v 0.450000 0.780000 0.750000
v 0.450000 0.780000 0.310000
v 0.440000 0.780000 0.310000
v 0.440000 0.780000 0.735000
v 0.440000 0.780000 0.735000
v 0.440000 0.780000 0.740000
v 0.360000 0.780000 0.740000
v 0.360000 0.780000 0.735000
v 0.440000 0.970000 0.300000
v 0.440000 0.970000 0.310000
v 0.450000 0.970000 0.300000
v 0.450000 0.970000 0.310000
v 0.550000 0.970000 0.300000
v 0.560000 0.970000 0.300000
v 0.560000 0.770000 0.300000
v 0.550000 0.770000 0.300000
v 0.550000 0.970000 0.310000
v 0.550000 0.770000 0.750000
v 0.550000 0.780000 0.750000
v 0.550000 0.780000 0.310000
v 0.560000 0.970000 0.310000
v 0.560000 0.770000 0.340000
v 0.560000 0.780000 0.310000
v 0.560000 0.780000 0.340000
v 0.560000 0.770000 0.735000
v 0.560000 0.770000 0.740000
v 0.640000 0.770000 0.740000
v 0.640000 0.770000 0.735000
v 0.640000 0.770000 0.735000
v 0.640000 0.770000 0.300000
v 0.650000 0.770000 0.300000
v 0.650000 0.770000 0.750000
v 0.650000 0.780000 0.750000
v 0.650000 0.780000 0.310000
v 0.640000 0.780000 0.310000
v 0.640000 0.780000 0.735000
v 0.640000 0.780000 0.735000
v 0.640000 0.780000 0.740000
v 0.560000 0.780000 0.740000
v 0.560000 0.780000 0.735000
v 0.640000 0.970000 0.300000
v 0.640000 0.970000 0.310000
v 0.650000 0.970000 0.300000
v 0.650000 0.970000 0.310000
v 0.750000 0.970000 0.300000
v 0.760000 0.970000 0.300000
v 0.760000 0.770000 0.300000
v 0.750000 0.770000 0.300000
v 0.750000 0.970000 0.310000
v 0.750000 0.770000 0.750000
v 0.750000 0.780000 0.750000
v 0.750000 0.780000 0.310000
v 0.760000 0.970000 0.310000
v 0.760000 0.770000 0.340000
v 0.760000 0.780000 0.310000
v 0.760000 0.780000 0.340000
v 0.760000 0.770000 0.735000
v 0.760000 0.770000 0.740000
v 0.840000 0.770000 0.740000
v 0.840000 0.770000 0.735000
v 0.840000 0.770000 0.735000
v 0.840000 0.770000 0.300000
v 0.850000 0.770000 0.300000
v 0.850000 0.770000 0.750000
v 0.850000 0.780000 0.750000
v 0.850000 0.780000 0.310000
v 0.840000 0.780000 0.310000
v 0.840000 0.780000 0.735000
v 0.840000 0.780000 0.735000
v 0.840000 0.780000 0.740000
v 0.760000 0.780000 0.740000
v 0.760000 0.780000 0.735000
v 0.840000 0.970000 0.300000
v 0.840000 0.970000 0.310000
v 0.850000 0.970000 0.300000
v 0.850000 0.970000 0.310000
vn 0.000000 0.000000 -1.000000
vn -1.000000 0.000000 0.000000
vn 0.000000 1.000000 0.000000
vn 1.000000 0.000000 0.000000
vn 0.000000 -1.000000 0.000000
vn 0.000000 0.000000 1.000000
vn 0.000000 -0.894400 -0.447200
usemtl Paint
s off
f 130//43 131//43 132//43
f 129//44 132//44 136//44
f 130//45 129//45 133//45
f 131//46 130//46 139//46
f 142//47 143//47 134//47
f 137//48 133//48 136//48
f 134//48 148//48 149//48
f 135//45 149//45 154//45
f 153//43 152//43 145//43
f 146//44 145//44 151//44
f 159//43 147//43 146//43
f 159//46 150//46 147//46
f 160//48 158//48 151//48
f 159//45 157//45 158//45
f 156//46 141//46 138//46
f 153//44 144//44 143//44
f 154//43 143//43 142//43
f 141//46 156//46 155//46
f 162//43 163//43 164//43
f 161//44 164//44 168//44
f 162//45 161//45 165//45
f 163//46 162//46 171//46
f 174//47 175//47 166//47
f 169//48 165//48 168//48
f 166//48 180//48 181//48
f 167//45 181//45 186//45
f 185//48 184//48 177//48
f 178//44 177//44 183//44
f 191//43 179//43 178//43
f 191//46 182//46 179//46
f 192//48 190//48 183//48
f 191//45 189//45 190//45
f 188//46 173//46 170//46
f 185//44 176//44 175//44
f 186//43 175//43 174//43
f 173//46 188//46 187//46
f 194//43 195//43 196//43
f 193//44 196//44 200//44
f 194//45 193//45 197//45
f 195//46 194//46 203//46
f 206//47 207//47 198//47
f 201//48 197//48 200//48
f 198//48 212//48 213//48
f 199//45 213//45 218//45
f 217//43 216//43 209//43
f 210//44 209//44 215//44
f 223//43 211//43 210//43
f 223//46 214//46 211//46
f 224//48 222//48 215//48
f 223//45 221//45 222//45
f 220//46 205//46 202//46
f 217//44 208//44 207//44
f 218//43 207//43 206//43
f 205//46 220//46 219//46
f 226//43 227//43 228//43
f 225//44 228//44 232//44
f 226//45 225//45 229//45
f 227//46 226//46 235//46
f 238//47 239//47 230//47
f 233//48 229//48 232//48
f 230//48 244//48 245//48
f 231//45 245//45 250//45
f 249//43 248//43 241//43
f 242//44 241//44 247//44
f 255//43 243//43 242//43
f 255//46 246//46 243//46
f 256//48 254//48 247//48
f 255//45 253//45 254//45
f 252//46 237//46 234//46
f 249//44 240//44 239//44
f 250//43 239//43 238//43
f 237//46 252//46 251//46
f 129//43 130//43 132//43
f 134//44 135//44 136//44
f 136//44 133//44 129//44
f 132//44 134//44 136//44
f 137//45 130//45 133//45
f 139//46 140//46 138//46
f 130//46 137//46 139//46
f 139//46 138//46 131//46
f 145//47 147//47 148//47
f 138//47 132//47 131//47
f 145//47 146//47 147//47
f 134//47 132//47 138//47
f 144//48 145//48 148//48
f 134//47 138//47 141//47
f 143//47 144//47 148//47
f 134//47 141//47 142//47
f 143//47 148//47 134//47
f 139//48 137//48 136//48
f 135//48 134//48 149//48
f 140//45 139//45 136//45
f 152//45 153//45 154//45
f 135//45 140//45 136//45
f 150//45 151//45 152//45
f 135//45 156//45 140//45
f 149//45 152//45 154//45
f 155//45 156//45 135//45
f 149//45 150//45 152//45
f 154//45 155//45 135//45
f 144//43 153//43 145//43
f 151//44 158//44 157//44
f 145//44 152//44 151//44
f 151//44 157//44 146//44
f 157//43 159//43 146//43
f 150//46 148//46 147//46
f 150//46 159//46 160//46
f 150//46 149//46 148//46
f 150//48 160//48 151//48
f 160//45 159//45 158//45
f 140//46 156//46 138//46
f 154//44 153//44 143//44
f 155//43 154//43 142//43
f 142//46 141//46 155//46
f 161//43 162//43 164//43
f 166//44 167//44 168//44
f 168//44 165//44 161//44
f 164//44 166//44 168//44
f 169//45 162//45 165//45
f 171//46 172//46 170//46
f 162//46 169//46 171//46
f 171//46 170//46 163//46
f 176//47 179//47 180//47
f 170//47 164//47 163//47
f 176//48 177//48 178//48
f 166//47 164//47 170//47
f 176//47 178//47 179//47
f 166//47 170//47 173//47
f 175//47 176//47 180//47
f 166//47 173//47 174//47
f 175//47 180//47 166//47
f 171//48 169//48 168//48
f 167//48 166//48 181//48
f 172//45 171//45 168//45
f 167//45 188//45 172//45
f 184//48 185//48 186//48
f 167//45 172//45 168//45
f 181//45 184//45 186//45
f 187//45 188//45 167//45
f 182//45 183//45 184//45
f 186//45 187//45 167//45
f 181//45 182//45 184//45
f 176//48 185//48 177//48
f 183//44 190//44 189//44
f 177//44 184//44 183//44
f 183//44 189//44 178//44
f 189//43 191//43 178//43
f 182//46 180//46 179//46
f 182//46 191//46 192//46
f 182//46 181//46 180//46
f 182//48 192//48 183//48
f 192//45 191//45 190//45
f 172//46 188//46 170//46
f 186//44 185//44 175//44
f 187//43 186//43 174//43
f 174//46 173//46 187//46
f 193//43 194//43 196//43
f 198//44 199//44 200//44
f 200//44 197//44 193//44
f 196//44 198//44 200//44
f 201//45 194//45 197//45
f 203//46 204//46 202//46
f 194//46 201//46 203//46
f 203//46 202//46 195//46
f 209//47 211//47 212//47
f 202//47 196//47 195//47
f 209//47 210//47 211//47
f 198//47 196//47 202//47
f 208//49 209//49 212//49
f 198//47 202//47 205//47
f 207//47 208//47 212//47
f 198//47 205//47 206//47
f 207//47 212//47 198//47
f 203//48 201//48 200//48
f 199//48 198//48 213//48
f 204//45 203//45 200//45
f 199//45 220//45 204//45
f 216//48 217//48 218//48
f 199//45 204//45 200//45
f 213//45 216//45 218//45
f 219//45 220//45 199//45
f 214//45 215//45 216//45
f 218//45 219//45 199//45
f 213//45 214//45 216//45
f 208//43 217//43 209//43
f 215//44 222//44 221//44
f 209//44 216//44 215//44
f 215//44 221//44 210//44
f 221//43 223//43 210//43
f 214//46 212//46 211//46
f 214//46 223//46 224//46
f 214//46 213//46 212//46
f 214//48 224//48 215//48
f 224//45 223//45 222//45
f 204//46 220//46 202//46
f 218//44 217//44 207//44
f 219//43 218//43 206//43
f 206//46 205//46 219//46
f 225//43 226//43 228//43
f 230//44 231//44 232//44
f 232//44 229//44 225//44
f 228//44 230//44 232//44
f 233//45 226//45 229//45
f 235//46 236//46 234//46
f 226//46 233//46 235//46
f 235//46 234//46 227//46
f 241//47 243//47 244//47
f 234//47 228//47 227//47
f 241//47 242//47 243//47
f 230//47 228//47 234//47
f 240//43 241//43 244//43
f 230//47 234//47 237//47
f 239//47 240//47 244//47
f 230//47 237//47 238//47
f 239//47 244//47 230//47
f 235//48 233//48 232//48
f 231//48 230//48 245//48
f 236//45 235//45 232//45
f 231//45 252//45 236//45
f 248//45 249//45 250//45
f 231//45 236//45 232//45
f 246//45 247//45 248//45
f 251//45 252//45 231//45
f 245//45 248//45 250//45
f 250//45 251//45 231//45
f 245//45 246//45 248//45
f 240//43 249//43 241//43
f 247//44 254//44 253//44
f 241//44 248//44 247//44
f 247//44 253//44 242//44
f 253//43 255//43 242//43
f 246//46 244//46 243//46
f 246//46 255//46 256//46
f 246//46 245//46 244//46
f 246//48 256//48 247//48
f 256//45 255//45 254//45
f 236//46 252//46 234//46
f 250//44 249//44 239//44
f 251//43 250//43 238//43
f 238//46 237//46 251//46
o Edge_Cube.010
v 0.000000 1.005000 0.200000
v 1.000000 1.005000 0.200000
v 1.000000 0.955000 0.200000
v 0.000000 0.955000 0.200000
v 0.000000 1.005000 0.800000
v 0.000000 0.955000 0.800000
v 0.010000 1.005000 0.210000
v 1.000000 1.005000 0.800000
v 0.990000 1.005000 0.790000
v 0.010000 1.005000 0.790000
v 0.990000 1.005000 0.210000
v 1.000000 0.955000 0.800000
v 0.010000 0.955000 0.210000
v 0.990000 0.955000 0.790000
v 0.990000 0.955000 0.210000
v 0.010000 0.955000 0.790000
vn 0.000000 0.000000 -1.000000
vn -1.000000 0.000000 0.000000
vn 0.000000 1.000000 0.000000
vn 1.000000 0.000000 0.000000
vn 0.000000 -1.000000 0.000000
vn 0.000000 0.000000 1.000000
usemtl Metal
s off
f 258//50 259//50 260//50
f 257//51 260//51 262//51
f 257//52 261//52 266//52
f 267//52 265//52 258//52
f 264//53 268//53 259//53
f 260//54 259//54 271//54
f 272//54 270//54 262//54
f 261//55 262//55 268//55
f 263//55 269//55 271//55
f 267//51 271//51 270//51
f 266//53 272//53 269//53
f 265//50 270//50 272//50
f 257//50 258//50 260//50
f 261//51 257//51 262//51
f 264//52 265//52 266//52
f 266//52 263//52 257//52
f 261//52 264//52 266//52
f 258//52 257//52 263//52
f 265//52 264//52 258//52
f 258//52 263//52 267//52
f 258//53 264//53 259//53
f 259//54 270//54 271//54
f 271//54 269//54 260//54
f 259//54 268//54 270//54
f 262//54 260//54 269//54
f 270//54 268//54 262//54
f 262//54 269//54 272//54
f 264//55 261//55 268//55
f 267//55 263//55 271//55
f 265//51 267//51 270//51
f 263//53 266//53 269//53
f 266//50 265//50 272//50
o TopPillar_Cube.008
v 0.125000 0.675000 0.275000
v 0.125000 0.725000 0.275000
v 0.875000 0.675000 0.275000
v 0.875000 0.725000 0.275000
v 0.125000 0.675000 0.325000
v 0.125000 0.725000 0.325000
v 0.875000 0.675000 0.325000
v 0.875000 0.725000 0.325000
vn 0.000000 0.000000 -1.000000
vn 1.000000 0.000000 0.000000
vn 0.000000 0.000000 1.000000
vn -1.000000 0.000000 0.000000
vn 0.000000 -1.000000 0.000000
vn 0.000000 1.000000 0.000000
usemtl Metal
s off
f 276//56 275//56 273//56
f 280//57 279//57 275//57
f 278//58 277//58 279//58
f 274//59 273//59 277//59
f 275//60 279//60 277//60
f 280//61 276//61 274//61
f 274//56 276//56 273//56
f 276//57 280//57 275//57
f 280//58 278//58 279//58
f 278//59 274//59 277//59
f 273//60 275//60 277//60
f 278//61 280//61 274//61
